<?xml version="1.0" encoding="utf-8"?>
<!DOCTYPE svg PUBLIC "-//W3C//DTD SVG 1.1//EN" "http://www.w3.org/Graphics/SVG/1.1/DTD/svg11.dtd">
<svg version="1.1" xmlns="http://www.w3.org/2000/svg" xmlns:xlink="http://www.w3.org/1999/xlink" x="0px" y="0px" width="1024px" height="1024px" viewBox="0 0 1024 1024" enable-background="new 0 0 1024 1024" xml:space="preserve">
<metadata> Free Icon Download -- www.onlinewebfonts.com </metadata>

  <path d="M752.400209 888.779296l-481.167784 0c-18.930141 0-34.368762 34.368762-34.368762 34.368762l0 34.368762 549.906332 0 0-34.368762C786.769994 904.21894 771.33035 888.779296 752.400209 888.779296z" />
<path d="M855.508541 98.289584l-687.383426 0c-56.923454 0-103.107309 46.200228-103.107309 103.107309l0 481.167784c0 56.923454 46.183855 103.107309 103.107309 103.107309l240.58338 0 0 34.368762c0 18.946514 15.439644 34.368762 34.368762 34.368762l137.477095 0c18.930141 0 34.368762-17.721617 34.368762-34.368762l0-34.368762 240.58338 0c56.923454 0 103.107309-46.183855 103.107309-103.107309L958.613804 201.396893C958.61585 144.489812 912.431995 98.289584 855.508541 98.289584zM168.125115 648.195915c-18.930141 0-34.368762-15.422248-34.368762-34.368762L133.756353 201.396893c0-18.930141 15.439644-34.368762 34.368762-34.368762l687.383426 0c18.930141 0 34.368762 15.439644 34.368762 34.368762l0 412.429237c0 18.946514-15.439644 34.368762-34.368762 34.368762L168.125115 648.194892zM855.474772 752.578264c-19.635199 0-35.577287-15.943111-35.577287-35.644825 0-19.651572 15.943111-35.644825 35.577287-35.644825 19.701714 0 35.644825 15.993253 35.644825 35.644825C891.118574 736.636177 875.176486 752.578264 855.474772 752.578264z" />
<path d="M762.469542 253.940596l-113.176642 113.176642-78.806857-78.806857c-7.552-7.585769-18.225083-11.142781-28.865421-9.767458-10.605545 1.426489-19.96982 7.719822-25.273616 17.016559L414.180114 474.336192l-42.290175-105.758696c-4.295839-10.723226-13.693884-18.577101-25.00551-20.893866-11.512195-2.333138-23.058159 1.191128-31.213909 9.364275l-103.107309 103.107309c-13.425777 13.425777-13.425777 35.175127 0 48.599881 13.425777 13.425777 35.175127 13.425777 48.599881 0l66.254983-66.254983 49.372477 123.463939c4.900613 12.233626 16.379039 20.608364 29.535687 21.51399 0.805342 0.050142 1.610684 0.083911 2.38328 0.083911 12.283768 0 23.695678-6.561439 29.838585-17.318434l115.15674-201.515596 71.288626 71.288626c13.425777 13.425777 35.175127 13.425777 48.600905 0l137.476071-137.477095c13.425777-13.425777 13.425777-35.175127 0-48.599881C797.644669 240.514819 775.895319 240.514819 762.469542 253.940596z" />


</svg>