<svg xmlns="http://www.w3.org/2000/svg" viewBox="0 0 512 512"><g data-name="Layer 16"><path fill="#95a5a6" d="M80.68,152.35h352a18.51,18.51,0,0,1,18.51,18.51V288.92a18.51,18.51,0,0,1-18.51,18.51h-352a0,0,0,0,1,0,0V152.35A0,0,0,0,1,80.68,152.35Z"/><path fill="#ffe049" d="M121 307.43H379.62a0 0 0 0 1 0 0V320.6a9.25 9.25 0 0 1-9.25 9.25H130.3A9.25 9.25 0 0 1 121 320.6V307.43A0 0 0 0 1 121 307.43zM393.47 307.43h28.2a0 0 0 0 1 0 0V320.6a9.25 9.25 0 0 1-9.25 9.25h-9.69a9.25 9.25 0 0 1-9.25-9.25V307.43A0 0 0 0 1 393.47 307.43z"/><rect width="258.57" height="9.29" x="121.05" y="307.43" fill="#b67731"/><rect width="28.2" height="9.29" x="393.47" y="307.43" fill="#b67731"/><path fill="#cdd4ec" d="M60.81,170.89V349.72a9.94,9.94,0,0,0,9.94,9.93h0a9.94,9.94,0,0,0,9.93-9.93V152.35H79.35A18.54,18.54,0,0,0,60.81,170.89Z"/><path fill="#aeb6d6" d="M60.81,307.43v42.29a9.94,9.94,0,0,0,9.94,9.93h0a9.94,9.94,0,0,0,9.93-9.93V307.43Z"/><path fill="#7f8c8d" d="M80.68,271.06H451.19a0,0,0,0,1,0,0v17.86a18.51,18.51,0,0,1-18.51,18.51h-352a0,0,0,0,1,0,0V271.06A0,0,0,0,1,80.68,271.06Z"/><circle cx="182.3" cy="229.89" r="62.48" fill="#2c3e50"/><circle cx="182.3" cy="229.89" r="53.35" fill="#34495e"/><circle cx="349.57" cy="229.89" r="62.48" fill="#2c3e50"/><circle cx="182.3" cy="229.89" r="32.76" fill="#2c3e50"/><circle cx="182.3" cy="229.89" r="24.03" fill="#95a5a6"/><path fill="#7f8c8d" d="M182.3,241.42a24,24,0,0,1-23.11-17.78,24,24,0,1,0,46.21,0A24,24,0,0,1,182.3,241.42Z"/><circle cx="349.57" cy="229.89" r="53.35" fill="#34495e"/><circle cx="349.57" cy="229.89" r="32.76" fill="#2c3e50"/><circle cx="349.57" cy="229.89" r="24.03" fill="#95a5a6"/><path fill="#7f8c8d" d="M349.57,241.42a24,24,0,0,1-23.11-17.78,24,24,0,1,0,46.22,0A24,24,0,0,1,349.57,241.42Z"/></g></svg>