<?xml version="1.0" encoding="UTF-8" standalone="no"?>
<svg
   width="128.04269"
   height="128.134"
   version="1.1"
   id="svg15"
   sodipodi:docname="memory-speed-symbolic.svg"
   xml:space="preserve"
   inkscape:version="1.2.2 (b0a8486541, 2022-12-01)"
   xmlns:inkscape="http://www.inkscape.org/namespaces/inkscape"
   xmlns:sodipodi="http://sodipodi.sourceforge.net/DTD/sodipodi-0.dtd"
   xmlns="http://www.w3.org/2000/svg"
   xmlns:svg="http://www.w3.org/2000/svg"
   xmlns:rdf="http://www.w3.org/1999/02/22-rdf-syntax-ns#"
   xmlns:cc="http://creativecommons.org/ns#"
   xmlns:dc="http://purl.org/dc/elements/1.1/"><defs
     id="defs19" /><sodipodi:namedview
     id="namedview17"
     pagecolor="#ffffff"
     bordercolor="#000000"
     borderopacity="0.25"
     inkscape:showpageshadow="2"
     inkscape:pageopacity="0.0"
     inkscape:pagecheckerboard="0"
     inkscape:deskcolor="#d1d1d1"
     showgrid="false"
     inkscape:zoom="5.6568543"
     inkscape:cx="47.199377"
     inkscape:cy="61.871843"
     inkscape:window-width="1274"
     inkscape:window-height="1369"
     inkscape:window-x="1282"
     inkscape:window-y="39"
     inkscape:window-maximized="0"
     inkscape:current-layer="svg15"><inkscape:grid
       type="xygrid"
       id="grid359"
       originx="0.023864"
       originy="0.003" /></sodipodi:namedview><metadata
     id="metadata90"><rdf:RDF><cc:Work
         rdf:about=""><dc:format>image/svg+xml</dc:format><dc:type
           rdf:resource="http://purl.org/dc/dcmitype/StillImage" /></cc:Work></rdf:RDF></metadata><g
     fill="#bebebe"
     fill-rule="evenodd"
     color="#000000"
     id="g7"
     transform="translate(0.023864,0.003)"><path
       d="M 38.5,9.64 H 88.421 V 118.49 H 38.5 Z"
       style="font-variant-ligatures:normal;font-variant-position:normal;font-variant-caps:normal;font-variant-numeric:normal;font-variant-alternates:normal;font-variant-east-asian:normal;font-feature-settings:normal;font-variation-settings:normal;text-indent:0;text-decoration-line:none;text-decoration-style:solid;text-decoration-color:#000000;text-transform:none;text-orientation:mixed;white-space:normal;shape-padding:0;shape-margin:0;inline-size:0;isolation:auto;mix-blend-mode:normal"
       id="path3" /><path
       d="m 38.5,-0.002 a 9.643,9.643 0 0 0 -9.64,9.643 v 108.85 a 9.643,9.643 0 0 0 9.64,9.64 h 49.922 a 9.643,9.643 0 0 0 9.64,-9.64 V 9.64 a 9.643,9.643 0 0 0 -9.64,-9.643 z m 9.64,19.283 h 30.64 v 89.566 H 48.14 Z"
       style="font-variant-ligatures:normal;font-variant-position:normal;font-variant-caps:normal;font-variant-numeric:normal;font-variant-alternates:normal;font-variant-east-asian:normal;font-feature-settings:normal;font-variation-settings:normal;text-indent:0;text-decoration-line:none;text-decoration-style:solid;text-decoration-color:#000000;text-transform:none;text-orientation:mixed;white-space:normal;shape-padding:0;shape-margin:0;inline-size:0;isolation:auto;mix-blend-mode:normal"
       id="path5" /></g><g
     color="#000000"
     fill="#bebebe"
     id="g13"
     style="display:inline"
     transform="translate(0.023864,0.003)"><path
       transform="matrix(7.9809,0,0,7.9168,2864.8,-3855.9)"
       d="m -358.96,500.4 v 1.5 h 3 v -1.5 z m 0,-3.03 v 1.5 h 3 v -1.5 z m 0,-3.03 v 1.5 h 3 v -1.5 z m 0,-3.03 v 1.5 h 3 v -1.5 z m 0,-3.03 v 1.5 h 3 v -1.5 z"
       style="font-variant-ligatures:normal;font-variant-position:normal;font-variant-caps:normal;font-variant-numeric:normal;font-variant-alternates:normal;font-variant-east-asian:normal;font-feature-settings:normal;font-variation-settings:normal;text-indent:0;text-decoration-line:none;text-decoration-style:solid;text-decoration-color:#000000;text-transform:none;text-orientation:mixed;white-space:normal;shape-padding:0;shape-margin:0;inline-size:0;isolation:auto;mix-blend-mode:normal"
       id="path9" /><path
       transform="matrix(7.9809,0,0,7.9168,2968.9,-3855.9)"
       d="m -358.96,500.4 v 1.5 h 3 v -1.5 z m 0,-3.03 v 1.5 h 3 v -1.5 z m 0,-3.03 v 1.5 h 3 v -1.5 z m 0,-3.03 v 1.5 h 3 v -1.5 z m 0,-3.03 v 1.5 h 3 v -1.5 z"
       style="font-variant-ligatures:normal;font-variant-position:normal;font-variant-caps:normal;font-variant-numeric:normal;font-variant-alternates:normal;font-variant-east-asian:normal;font-feature-settings:normal;font-variation-settings:normal;text-indent:0;text-decoration-line:none;text-decoration-style:solid;text-decoration-color:#000000;text-transform:none;text-orientation:mixed;white-space:normal;shape-padding:0;shape-margin:0;inline-size:0;isolation:auto;mix-blend-mode:normal"
       id="path11" /></g><g
     id="g1274"
     transform="translate(0.023864,0.003)"><path
       d="m 344,256 -84.4,64.2 c -1.2,-0.1 -2.4,-0.2 -3.6,-0.2 -17.7,0 -32,14.3 -32,32 0,17.7 14.3,32 32,32 17.7,0 32,-14.3 32,-32 0,-1.2 -0.1,-2.4 -0.2,-3.6 L 352,264 Z"
       id="path291"
       transform="matrix(0.14375466,0,0,0.14956262,26.733149,24.345613)" /><path
       d="M 256,96 C 132.3,96 32,196.3 32,320 c 0,34.4 7.8,66.9 21.6,96 H 89.7 C 74.3,389.4 65.5,359.4 64.2,328 H 96 V 312 H 64.2 c 1.2,-28.8 8.7,-56.5 21.8,-81.4 l 27.5,15.9 8,-13.9 L 94,216.8 c 7.4,-11.6 16.2,-22.6 26.2,-32.6 10.2,-10.1 21.3,-19 33.1,-26.5 l 15.8,27.3 13.9,-8 -15.8,-27.3 c 24.8,-13 52.2,-20.3 80.8,-21.5 V 160 h 16 v -31.8 c 28.6,1.2 56,8.6 80.8,21.5 l -15.7,27.3 13.9,8 15.8,-27.3 c 11.8,7.5 22.9,16.4 33.1,26.5 10,10 18.7,20.9 26.2,32.6 l -27.4,15.8 8,13.9 27.5,-15.9 c 13.1,24.9 20.6,52.6 21.8,81.4 h -32 v 16 h 31.8 c -1.3,31.4 -10.1,61.4 -25.5,88 h 36.1 C 472.2,386.9 480,354.4 480,320 480,196.3 379.7,96 256,96 Z"
       id="path293"
       transform="matrix(0.14375466,0,0,0.14956262,26.733149,24.345613)" /></g></svg>
