<?xml version="1.0" encoding="UTF-8" standalone="no"?>
<svg
   width="128"
   height="128"
   version="1.1"
   id="svg15"
   sodipodi:docname="memory-symbolic (2).svg"
   xml:space="preserve"
   inkscape:version="1.2.2 (b0a8486541, 2022-12-01)"
   xmlns:inkscape="http://www.inkscape.org/namespaces/inkscape"
   xmlns:sodipodi="http://sodipodi.sourceforge.net/DTD/sodipodi-0.dtd"
   xmlns="http://www.w3.org/2000/svg"
   xmlns:svg="http://www.w3.org/2000/svg"
   xmlns:rdf="http://www.w3.org/1999/02/22-rdf-syntax-ns#"
   xmlns:cc="http://creativecommons.org/ns#"
   xmlns:dc="http://purl.org/dc/elements/1.1/"><defs
     id="defs19" /><sodipodi:namedview
     id="namedview17"
     pagecolor="#ffffff"
     bordercolor="#000000"
     borderopacity="0.25"
     inkscape:showpageshadow="2"
     inkscape:pageopacity="0.0"
     inkscape:pagecheckerboard="0"
     inkscape:deskcolor="#d1d1d1"
     showgrid="false"
     inkscape:zoom="2.8284271"
     inkscape:cx="93.161318"
     inkscape:cy="-10.606602"
     inkscape:window-width="2560"
     inkscape:window-height="1377"
     inkscape:window-x="0"
     inkscape:window-y="35"
     inkscape:window-maximized="1"
     inkscape:current-layer="svg15" /><metadata
     id="metadata90"><rdf:RDF><cc:Work
         rdf:about=""><dc:format>image/svg+xml</dc:format><dc:type
           rdf:resource="http://purl.org/dc/dcmitype/StillImage" /><dc:title>Gnome Symbolic Icon Theme</dc:title></cc:Work></rdf:RDF></metadata><g
     color="#000"
     fill="#bebebe"
     id="g13"><path
       transform="matrix(7.9809 0 0 7.9168 2864.8 -3855.9)"
       d="M-358.96 500.4v1.5h3v-1.5zm0-3.03v1.5h3v-1.5zm0-3.03v1.5h3v-1.5zm0-3.03v1.5h3v-1.5zm0-3.03v1.5h3v-1.5z"
       style="font-feature-settings:normal;font-variant-alternates:normal;font-variant-caps:normal;font-variant-east-asian:normal;font-variant-ligatures:normal;font-variant-numeric:normal;font-variant-position:normal;font-variation-settings:normal;inline-size:0;isolation:auto;mix-blend-mode:normal;shape-margin:0;shape-padding:0;text-decoration-color:#000;text-decoration-line:none;text-decoration-style:solid;text-indent:0;text-orientation:mixed;text-transform:none;white-space:normal"
       id="path9" /><path
       d="M-358.96 500.4v1.5h3v-1.5zm0-3.03v1.5h3v-1.5zm0-3.03v1.5h3v-1.5zm0-3.03v1.5h3v-1.5zm0-3.03v1.5h3v-1.5z"
       style="font-feature-settings:normal;font-variant-alternates:normal;font-variant-caps:normal;font-variant-east-asian:normal;font-variant-ligatures:normal;font-variant-numeric:normal;font-variant-position:normal;font-variation-settings:normal;inline-size:0;isolation:auto;mix-blend-mode:normal;shape-margin:0;shape-padding:0;text-decoration-color:#000;text-decoration-line:none;text-decoration-style:solid;text-indent:0;text-orientation:mixed;text-transform:none;white-space:normal"
       id="path11"
       transform="matrix(7.9809 0 0 7.9168 2968.9 -3855.9)" /></g><g
     id="g234"
     transform="matrix(0.14555901,0,0,0.17715079,26.290613,17.531952)" /><g
     fill="#bebebe"
     fill-rule="evenodd"
     color="#000000"
     id="g1887"
     transform="matrix(1,0,0,1.0228125,-0.22650944,0.16310015)"><path
       id="path1885"
       style="font-variant-ligatures:normal;font-variant-position:normal;font-variant-caps:normal;font-variant-numeric:normal;font-variant-alternates:normal;font-variant-east-asian:normal;font-feature-settings:normal;font-variation-settings:normal;text-indent:0;text-decoration-line:none;text-decoration-style:solid;text-decoration-color:#000000;text-transform:none;text-orientation:mixed;white-space:normal;shape-padding:0;shape-margin:0;inline-size:0;isolation:auto;mix-blend-mode:normal"
       d="M 88.422543,-0.00351493 38.500668,-0.00156181 C 33.176163,9.4678344e-5 28.860043,4.3165111 28.860043,9.6410163 V 118.49063 c 0.0017,5.32333 4.317291,9.63896 9.640625,9.64062 h 49.921875 c 5.323333,-0.002 9.637015,-4.31729 9.638671,-9.64062 V 9.6390632 c 0,-5.3245052 -4.314167,-9.64092165 -9.638671,-9.64257813 z M 63.317074,31.412501 c 18.005631,0 32.605469,17.76811 32.605469,39.68164 0,6.093981 -1.135819,11.850777 -3.144532,17.00586 h -5.253906 c 2.241607,-4.712207 3.521711,-10.025362 3.710938,-15.587891 h -4.628907 v -2.835937 h 4.658203 C 91.089669,64.574235 89.997332,59.667301 88.090511,55.256251 l -4.001953,2.818359 -1.164062,-2.462891 3.988281,-2.798828 c -1.091692,-2.072662 -2.358865,-4.003884 -3.814453,-5.77539 -1.484701,-1.789221 -3.100765,-3.366683 -4.81836,-4.695313 l -2.298828,4.835938 -2.023437,-1.416016 2.285156,-4.835937 C 72.632995,38.64093 68.64412,37.33016 64.481136,37.117579 v 5.632812 h -2.328125 v -5.632812 c -4.162983,0.212581 -8.151859,1.505636 -11.761718,3.808594 l 2.300781,4.835937 -2.023438,1.416016 -2.300781,-4.835938 c -1.717595,1.32863 -3.333659,2.906092 -4.818359,4.695313 -1.455589,1.771506 -2.735365,3.720443 -3.8125,5.77539 l 4.001953,2.798828 -1.164063,2.462891 -4.001953,-2.818359 c -1.906821,4.41105 -2.999157,9.317984 -3.173828,14.419922 h 4.628906 v 2.835937 h -4.628906 c 0.189227,5.562529 1.469331,10.875684 3.710938,15.587891 h -5.253907 c -2.008712,-5.155083 -3.144531,-10.911879 -3.144531,-17.00586 0,-21.91353 14.599837,-39.68164 32.605469,-39.68164 z m 12.808594,28.34375 1.166015,1.417968 -9.345703,14.951172 c 0.01456,0.212581 0.0293,0.426091 0.0293,0.638672 0,3.135566 -2.081811,5.667969 -4.658203,5.667969 -2.576392,0 -4.658203,-2.532403 -4.658203,-5.667969 0,-3.135566 2.081811,-5.669922 4.658203,-5.669922 0.17467,0 0.348767,0.01744 0.523437,0.03516 z" /></g></svg>
