<?xml version="1.0" encoding="UTF-8" standalone="no"?>
<svg
   width="512"
   height="512"
   viewBox="0 0 512 512"
   version="1.1"
   id="svg422"
   sodipodi:docname="speedometer-grey.svg"
   inkscape:version="1.2.2 (b0a8486541, 2022-12-01)"
   xmlns:inkscape="http://www.inkscape.org/namespaces/inkscape"
   xmlns:sodipodi="http://sodipodi.sourceforge.net/DTD/sodipodi-0.dtd"
   xmlns="http://www.w3.org/2000/svg"
   xmlns:svg="http://www.w3.org/2000/svg">
  <defs
     id="defs426" />
  <sodipodi:namedview
     id="namedview424"
     pagecolor="#ffffff"
     bordercolor="#000000"
     borderopacity="0.25"
     inkscape:showpageshadow="2"
     inkscape:pageopacity="0.0"
     inkscape:pagecheckerboard="0"
     inkscape:deskcolor="#d1d1d1"
     showgrid="false"
     inkscape:zoom="2"
     inkscape:cx="244.5"
     inkscape:cy="256.5"
     inkscape:window-width="2560"
     inkscape:window-height="1377"
     inkscape:window-x="0"
     inkscape:window-y="35"
     inkscape:window-maximized="1"
     inkscape:current-layer="svg422" />
  <path
     style="fill:#bebebe;stroke-width:0.5"
     d="M 50.756781,408.875 C 38.188387,379.4114 32.49209,351.77987 32.48343,320.23486 32.478663,302.86771 33.813826,289.30207 37.033977,274 49.839184,213.14999 87.625845,160.19701 141.18412,128.04739 196.20747,95.018331 263.14033,87.347126 324.52759,107.03431 c 71.38109,22.89226 127.21713,81.14858 147.17918,153.55885 5.46596,19.82722 7.81581,37.77247 7.8098,59.6417 -0.009,31.61718 -5.68919,59.09044 -18.37522,88.86997 L 458.31052,415.75 H 440.65526 C 430.94487,415.75 423,415.67126 423,415.57503 c 0,-0.0962 1.14078,-2.2745 2.53506,-4.84059 12.57391,-23.14144 20.3185,-50.31544 22.2612,-78.10944 l 0.34075,-4.875 H 432.06851 416 V 320 312.25 h 16.07684 16.07684 l -0.31847,-5.92278 c -0.89427,-16.63153 -4.89159,-35.50756 -11.18708,-52.82722 -2.04585,-5.62839 -8.58899,-20.53268 -9.72792,-22.15872 -0.73456,-1.04873 -0.9259,-0.95833 -14.1223,6.67279 -7.35771,4.25476 -13.5572,7.73593 -13.77665,7.73593 -0.43562,0 -7.52126,-12.07055 -7.52126,-12.81265 0,-0.25101 6.01875,-3.91362 13.375,-8.13912 7.35625,-4.22549 13.45445,-7.75065 13.55154,-7.83368 0.0971,-0.083 -1.4779,-2.55966 -3.5,-5.50361 -13.91665,-20.26112 -34.69811,-40.44761 -54.95972,-53.38621 l -1.28317,-0.81941 -7.63754,13.24609 c -4.20065,7.28534 -7.84499,13.37428 -8.09853,13.53098 -0.32726,0.20226 -10.719,-5.28149 -13.32087,-7.02948 -0.0678,-0.0456 3.36128,-6.13984 7.62021,-13.54287 4.25893,-7.40302 7.74565,-13.59485 7.74829,-13.75961 0.009,-0.55835 -13.70744,-6.82011 -20.49521,-9.35641 -18.8882,-7.05774 -37.83439,-11.09525 -57.375,-12.22686 L 264,127.93619 v 15.9069 15.90691 h -8 -8 v -15.93858 -15.93858 l -2.125,0.17426 c -16.86203,1.38281 -25.1378,2.61252 -36.60112,5.43862 -12.20542,3.00906 -27.04797,8.39062 -37.34847,13.54168 -2.57148,1.28594 -4.76088,2.41631 -4.86534,2.51193 -0.10446,0.0956 3.34292,6.27851 7.66086,13.73974 4.31793,7.46123 7.7784,13.62707 7.68993,13.70186 -0.0885,0.0748 -3.09789,1.81621 -6.6876,3.86983 l -6.52674,3.73386 -7.8808,-13.63566 -7.8808,-13.63567 -2.09312,1.34336 C 135.03537,169.12201 118.65397,183.92717 106.15006,199.5 100.82867,206.12746 94,215.77773 94,216.67047 c 0,0.27189 5.964315,3.91293 13.25403,8.0912 7.28972,4.17827 13.34902,7.75056 13.46513,7.93842 0.21402,0.34629 -6.21249,11.74324 -7.15095,12.6817 -0.34705,0.34705 -4.8534,-2.00314 -14.086725,-7.34661 -7.467035,-4.3213 -13.661855,-7.77148 -13.76626,-7.66707 -0.543675,0.54367 -6.435994,13.53216 -8.371863,18.45417 C 72.543276,261.02664 68.653201,274.9567 66.542316,287.5 65.452985,293.97302 64,306.96698 64,310.23578 V 312.25 h 16 16 v 7.75 7.75 H 79.931496 63.862992 l 0.340744,4.875 c 1.942698,27.794 9.687291,54.968 22.261204,78.10944 C 87.85922,413.30053 89,415.47879 89,415.57503 89,415.67126 81.05513,415.75 71.344737,415.75 H 53.689474 Z"
     id="path733" />
  <path
     style="fill:#bebebe;stroke-width:0.5"
     d="m 251,383.4067 c -7.20432,-1.19367 -14.45681,-5.42845 -19.40864,-11.33282 -4.72623,-5.63539 -7.13681,-12.41569 -7.13681,-20.07388 0,-9.02068 3.09283,-16.30386 9.67483,-22.78286 5.52953,-5.443 12.45119,-8.37119 20.87062,-8.82924 l 5.25,-0.28562 41.64502,-31.67614 C 324.79978,271.00426 343.70541,256.75 343.90753,256.75 c 0.20212,0 2.00464,1.64814 4.00558,3.66253 l 3.63809,3.66253 -32.0256,42.09843 -32.0256,42.09842 v 3.96444 c 0,5.32876 -0.72069,8.49692 -3.01722,13.26365 -4.35915,9.04798 -12.21452,15.3284 -21.83148,17.45443 -3.332,0.73661 -8.68188,0.94427 -11.6513,0.45227 z"
     id="path735" />
</svg>
