<?xml version="1.0" encoding="UTF-8" standalone="no"?>
<!-- Uploaded to: SVG Repo, www.svgrepo.com, Generator: SVG Repo Mixer Tools -->

<svg
   fill="#000000"
   height="800px"
   width="800px"
   version="1.1"
   id="Capa_1"
   viewBox="0 0 250.189 250.189"
   xml:space="preserve"
   sodipodi:docname="temperature-svgrepo-com-grey.svg"
   inkscape:version="1.2.2 (b0a8486541, 2022-12-01)"
   xmlns:inkscape="http://www.inkscape.org/namespaces/inkscape"
   xmlns:sodipodi="http://sodipodi.sourceforge.net/DTD/sodipodi-0.dtd"
   xmlns="http://www.w3.org/2000/svg"
   xmlns:svg="http://www.w3.org/2000/svg"><defs
   id="defs984" /><sodipodi:namedview
   id="namedview982"
   pagecolor="#ffffff"
   bordercolor="#000000"
   borderopacity="0.25"
   inkscape:showpageshadow="2"
   inkscape:pageopacity="0.0"
   inkscape:pagecheckerboard="0"
   inkscape:deskcolor="#d1d1d1"
   showgrid="false"
   inkscape:zoom="1.28"
   inkscape:cx="347.65625"
   inkscape:cy="400"
   inkscape:window-width="2560"
   inkscape:window-height="1377"
   inkscape:window-x="0"
   inkscape:window-y="35"
   inkscape:window-maximized="1"
   inkscape:current-layer="g979" />
<g
   id="g979">
	
	
<path
   style="fill:#bebebe;stroke-width:0.78125"
   d="m 371.41789,796.53055 c -39.47774,-7.28008 -72.5758,-24.48853 -99.93352,-51.95786 -24.11519,-24.21359 -39.41949,-51.17183 -48.14527,-84.80707 -3.81302,-14.69801 -4.57989,-21.89285 -4.57989,-42.96875 0,-21.58639 0.82325,-28.94352 5.0267,-44.92187 3.63351,-13.81191 6.48193,-21.36665 13.25522,-35.15625 11.20726,-22.81663 25.4203,-41.38884 43.61569,-56.99274 l 8.1541,-6.99274 0.51642,-40.98736 c 0.28402,-22.54305 0.53754,-83.73225 0.56336,-135.97601 0.0607,-122.77029 1.01834,-199.199572 2.59001,-206.7074 1.54992,-7.403898 5.4027,-18.091716 9.52065,-26.410795 15.14928,-30.604576 43.4126,-52.175275 77.41823,-59.0859684 11.07079,-2.2498278 30.77533,-2.2711513 41.69863,-0.045125 33.65548,6.8585494 61.75496,28.6726204 77.27685,59.9912284 4.08344,8.239179 6.72005,15.760817 9.77799,27.89441 l 1.96894,7.8125 0.007,175.0711 c 0.004,96.2891 0.23403,180.31351 0.51137,186.72091 l 0.50424,11.6498 3.85983,3.10962 c 6.87051,5.53512 23.24723,22.45148 28.73819,29.68515 10.5346,13.87805 21.17246,33.00357 26.94904,48.45092 3.64407,9.74474 7.6175,25.34133 9.45408,37.10937 1.9361,12.4057 1.95131,39.07462 0.0293,51.33665 -6.02848,38.46011 -22.59957,71.99715 -49.58778,100.35714 -25.66867,26.97338 -62.53067,46.56731 -100.52925,53.43621 -5.05311,0.91344 -13.18548,1.35071 -28.90625,1.55446 -18.80937,0.24367 -22.97919,0.0798 -29.75399,-1.16953 z m 46.65739,-44.93292 c 29.77368,-3.96369 54.75128,-16.04101 76.66304,-37.06856 16.34763,-15.68797 27.4747,-33.43641 34.57783,-55.15407 5.30905,-16.23229 6.23335,-22.79748 6.21455,-44.14063 -0.0141,-16.05988 -0.23446,-19.35396 -1.75897,-26.30028 -7.39751,-33.70616 -22.81029,-57.62502 -53.31071,-82.73207 -9.80954,-8.07493 -11.8975,-10.2592 -14.36119,-15.02352 -1.23551,-2.38924 -1.38605,-16.48173 -2.12398,-198.82813 -0.79384,-196.161901 -0.79501,-196.25869 -2.4253,-200.553495 -4.27453,-11.260797 -7.70624,-16.530502 -16.59656,-25.485592 -7.67644,-7.732379 -9.44276,-9.086624 -16.04774,-12.303861 -10.82738,-5.273943 -15.4207,-6.263414 -29.29688,-6.310992 -13.6356,-0.04675 -18.59353,1.127499 -30.36742,7.192311 -12.41972,6.39749 -23.26079,18.981044 -29.58484,34.340048 l -3.01503,7.322492 -0.75147,193.130609 c -0.41331,106.22184 -1.037,195.12748 -1.38598,197.56809 -0.86736,6.06595 -2.98949,8.87075 -13.02026,17.20871 -17.44183,14.49833 -30.16211,28.20356 -37.91779,40.85381 -14.57528,23.77366 -21.84974,53.96712 -19.5567,81.17225 1.62021,19.22242 5.56548,33.37759 14.1752,50.859 13.4913,27.39308 34.36292,48.10468 62.26425,61.7869 13.67518,6.70601 25.9754,10.37286 43.92567,13.09477 5.01221,0.76004 26.24685,0.36446 33.70028,-0.62779 z"
   id="path416"
   transform="scale(0.31273625)" /><path
   style="fill:#bebebe;stroke-width:0.78125"
   d="m 385.15625,693.45301 c -29.6457,-6.53657 -53.2581,-28.93263 -61.05104,-57.90614 -1.50348,-5.58983 -1.78927,-8.61857 -1.8061,-19.14062 -0.017,-10.61587 0.24971,-13.50095 1.76925,-19.14063 5.89227,-21.86873 21.81694,-41.06935 42.42816,-51.15628 3.70199,-1.81172 7.48129,-3.49027 8.39844,-3.73011 l 1.66754,-0.43607 V 380.69124 219.43933 l 2.74379,-4.64154 c 3.03888,-5.14073 7.5762,-9.65913 11.63245,-11.58394 1.79096,-0.84987 4.7824,-1.25834 9.17933,-1.25339 5.75789,0.006 6.9805,0.27148 10.4288,2.26058 4.74642,2.73788 6.48328,4.5565 10.10123,10.57675 l 2.7894,4.64154 v 160.33362 c 0,88.1835 0.21339,160.88973 0.47421,161.5694 0.26081,0.67968 0.89465,1.23577 1.40852,1.23577 1.62837,0 13.56075,6.06986 18.63023,9.47698 14.61164,9.82027 27.51509,28.3667 32.26996,46.3824 2.07194,7.85037 2.08325,28.22643 0.0199,35.9375 -3.68474,13.77077 -10.46187,25.77131 -20.52711,36.34815 -10.23302,10.75315 -20.44311,16.75322 -36.57263,21.49227 -9.64071,2.83256 -24.32526,3.36731 -33.98437,1.23759 z"
   id="path418"
   transform="scale(0.31273625)" /></g>
</svg>
